# xmcd CD database file
#
# Track frame offsets:
#	150
#	21513
#	43720
#	59667
#	76298
#	94831
#	117241
#	138430
#	158843
#	181854
#
# Disc length: 2660 seconds
#
# Revision: 0
# Processed by: cddbd v1.5.2PL0 Copyright (c) Steve Scherf et al.
# Submitted via: CDex 1.51
#
DISCID=840a620a
DTITLE=Various  artists - Smooth Jazz
DYEAR=1900
DGENRE=Jazz
TTITLE0=Exhale(Shoop Shoop)
TTITLE1=Twilight
TTITLE2=Randy's Song
TTITLE3=Every Time We Say Goodbye
TTITLE4=Walk on The Wild Side
TTITLE5=Still in Love
TTITLE6=First Flight Home
TTITLE7=Mediterranean Nights
TTITLE8=The Shadow of Your Smile
TTITLE9=My Love
EXTD=
EXTT0=
EXTT1=
EXTT2=
EXTT3=
EXTT4=
EXTT5=
EXTT6=
EXTT7=
EXTT8=
EXTT9=
PLAYORDER=
